# xmcd CD database file
#
# Track frame offsets:
#	150
#	44414
#	90251
#	141125
#	225290
#	265419
#	271503
#	305781
#
# Disc length: 4532 seconds
#
# Revision: 0
# Processed by: cddbd v1.5.1PL0 Copyright (c) Steve Scherf et al.
# Submitted via: CDex 1.51
#
DISCID=6011b208
DTITLE=John Tilbury and Eddie Prévost - Discrete Moments
DYEAR=2004
DGENRE=Jazz
TTITLE0=D
TTITLE1=T
TTITLE2=S
TTITLE3=R
TTITLE4=C
TTITLE5=E1
TTITLE6=I
TTITLE7=E2
EXTD=YEAR: 2004
EXTT0=
EXTT1=
EXTT2=
EXTT3=
EXTT4=
EXTT5=
EXTT6=
EXTT7=
PLAYORDER=
